<svg id="Layer_1" data-name="Layer 1" xmlns="http://www.w3.org/2000/svg" viewBox="0 0 5358.7 1469.85"><defs><style>.cls-1{fill:#fff;}</style></defs><title>zenjoy-technology-logo</title><path class="cls-1" d="M457.58,687.32c118.79-55.74,219.66-64.74,317.84-78.94,112-16.19,292.07-13.66,292.07-13.66-38.48-31.72-176.86-69-277.11-78.39-166.73-15.68-244.91-32-479.76,31,0,0-6.1-70.41-1-170.76C315.83,254.32,346.42,256,448.45,233.8c22-4.79,85.38-24.48,270.93-24s256.26.37,354.28,12.81,142.48,26.19,147.89,110.79S1236.3,531.19,1235.14,684c-.31,40.35-.62,74.17-1,103.18,12.94-.22,25.91-.44,40.15-.5,6.76,0,12.88.07,19.44.08s12.68-.11,19.44-.08c16.44.07,31.64.29,46.35.58q.41-50.15.47-103.26c0-172.06-4.19-348.32-4.19-400,0-103.6-68-169.19-181.24-187.58-56.18-9.12-170.16-24.7-394.11-25.58C553.06,70,401.61,84,333.6,96.45c-135,24.76-181.25,95-181.25,187.58,0,43.1-9.74,146.53-9.74,283.13,0,156.63,6.34,396.24,8.07,406.67C237,816.91,359.05,733.55,457.58,687.32Z" transform="translate(-142.62 -39)"/><path class="cls-1" d="M888,1196.22c0-20.69.11-41.32.26-61.68-94,7.3-196.25,11.07-269.22,4-131.52-12.79-127.77-1.94-124.34-69.37,3.39-66.53,89.27-242.46,237.75-325,118.63-65.88,267.27-96.45,267.27-96.45s-272.53-3-474.48,117.53C361.5,863,285.32,1016.08,241,1120.51c-2,4.61-2.63,9.15-3.84,13.4-.3,1.32-.69,2.45-1,3.68-1.39,5-2.66,9.62-3.8,14a5.21,5.21,0,0,0-.65-.25c-20.28,62.63-26.13,107.52,120.76,119.82,33.52,2.81,124.33,17.81,277.91,17.08,65.06-.32,162.87-3.26,258.18-6.79C888.2,1254.27,888,1225.59,888,1196.22Z" transform="translate(-142.62 -39)"/><path class="cls-1" d="M1607.28,1044.14c-.34-21.87-.6-38.8-.6-47.94,0-56.16-36.31-94.27-99.63-104.57-19-3.08-76.7-12.47-198.73-13h-1.84l-7,0-5.84,0-5.8,0-7,0c-123.86.48-181.6,9.87-200.57,13C1017,901.92,980.7,940,980.7,996.19c0,9.14-.26,26.07-.6,47.94-.62,40.09-1.5,96.71-1.5,152.45,0,55,.82,106.72,1.44,145.51.37,23.15.66,41.65.66,53.43,0,60.63,38.58,100.74,100.68,104.69,22.39,1.42,131.18,6.4,212,8.63,81.43-2.24,190.23-7.22,212.61-8.63,62.1-3.95,100.68-44.06,100.68-104.69,0-11.78.29-30.28.66-53.43.62-38.79,1.44-90.54,1.44-145.51C1608.78,1140.85,1607.9,1084.23,1607.28,1044.14Zm-313.59,371c-58.58-1.35-125-8.15-162.05-13.91-51.22-8-61.48-12.1-64.06-41.59-3.37-38.5-4.2-51.82-5.05-163.09-.51-66.1,2.88-116.71,5.61-157.37l1.16-17.51c2.12-33.2,14.9-39.22,64.58-45.54,45.21-5.75,79.58-6.06,159.85-6.28,80.2.22,114.58.54,159.79,6.28,49.68,6.32,62.47,12.34,64.59,45.54l1.16,17.51c2.73,40.67,6.12,91.27,5.61,157.37-.85,111.33-1.68,124.65-5.05,163.09-2.58,29.49-12.84,33.62-64.07,41.59C1418.74,1407,1352.28,1413.75,1293.69,1415.1Zm-235.12-394.17c-.68,10.59-1.48,22.08-2.28,34.55.81-12.47,1.61-24,2.28-34.56s2.57-19,5.81-25.68C1061.15,1002,1059.25,1010.34,1058.57,1020.93ZM1523,995.25c3.23,6.7,5.13,15.08,5.81,25.68s1.48,22.08,2.28,34.56c-.81-12.47-1.61-24-2.28-34.55S1526.24,1002,1523,995.25Zm-229.32-36.19c-30.23.08-54,.17-74.3.57,20.31-.39,44.07-.49,74.3-.57,30.23.08,54,.18,74.3.57C1347.68,959.24,1323.92,959.15,1293.69,959.06Zm-12.78-69.66c4.37,0,8.45.06,12.78.07s8.41-.07,12.79-.07h1.8c-5.07,0-9.66.05-14.58.06s-9.51-.08-14.58-.06Zm-265.27,572.66c15.62,16.08,38.28,25.64,66.42,27.43C1053.91,1487.71,1031.26,1478.15,1015.64,1462.06Zm489.69,27.43c28.15-1.79,50.8-11.35,66.42-27.43C1556.13,1478.15,1533.47,1487.71,1505.33,1489.5Z" transform="translate(-142.62 -39)"/><path class="cls-1" d="M1402.32,1187.07c0-14,28.13-9.26,35-21.42,8.72-15.34-10-60.56-27-65.22-13.47-3.7-30,19.57-39.9,9.68s13.36-26.48,9.66-40c-4.66-17-49.79-35.75-65.1-27-12.14,6.92-7.41,35.11-21.38,35.11s-9.24-28.19-21.38-35.11c-15.31-8.73-60.44,10-65.1,27-3.69,13.5,19.54,30.08,9.66,40s-26.43-13.38-39.9-9.68c-17,4.67-35.68,49.88-27,65.22,6.91,12.16,35,7.43,35,21.42s-28.13,9.26-35,21.42c-8.72,15.33,10,60.55,27,65.22,13.47,3.7,30-19.58,39.9-9.68s-13.36,26.48-9.66,40c4.66,17,49.8,35.77,65.1,27,12.13-6.94,7.49-36.59,21.38-35.11s8.48,29.76,21.38,35.11c16.27,6.75,58.36-10.71,65.1-27,5.34-12.93-19.44-30-9.66-40s26.47,13.52,39.9,9.68c16.94-4.85,35.68-49.89,27-65.22C1430.46,1196.33,1402.32,1201.06,1402.32,1187.07Zm-108.63,48.49a50.73,50.73,0,1,1,50.72-50.73A50.73,50.73,0,0,1,1293.69,1235.56Z" transform="translate(-142.62 -39)"/><path class="cls-1" d="M2429.39,1043.89c-.78-27-1.67-57.55-23.48-79.5-30.64-30.86-89.3-33.6-113.15-33.69l-275.86.68,412.17-509.79.43-62.07c0-31.52-2.79-49.17-28.23-74.75-24.68-24.86-53.08-29.85-90.92-29.85H1776.18V334c0,28.36,9.71,52.85,28.84,72.78,19.3,20.12,43.13,30.33,70.81,30.33h303.42L1767,947.08v166.63h662.54v-66.15Z" transform="translate(-142.62 -39)"/><path class="cls-1" d="M2918.35,843.92h163.06q-35.92,129.61-137,197.5-101.12,71-254.37,71-185.89,0-290.25-114.17-104.41-111.11-104.35-317.85,0-197.43,101.1-308.58,104.33-114.13,290.24-114.18,195.67,0,303.29,111.09,104.34,114.2,104.35,317.85v33.95c0,10.31-1.13,17.49-3.26,21.59H2527q3.2,95.67,48.91,141.95,42.35,49.4,127.19,49.37,55.41,0,94.57-21.59a45.87,45.87,0,0,0,17.94-10.8c5.4-5.12,11.41-10.81,17.94-17,2.14-6.17,10.29-14.36,24.46-24.68S2892.26,843.92,2918.35,843.92ZM2527,603.22h332.63q-6.57-83.31-45.65-123.43-42.43-43.19-120.66-43.2-71.77,0-117.41,43.2T2527,603.22Z" transform="translate(-142.62 -39)"/><path class="cls-1" d="M3761.68,1097H3647.56q-48.93,0-79.91-29.32t-31-75.61V572.36q0-74.06-47.31-108t-106-33.95q-58.7,0-104.37,33.95t-45.64,108V1097H3005.1V615.57q0-209.83,115.77-280.82t256-77.15q143.48,0,264.15,71t120.66,287Z" transform="translate(-142.62 -39)"/><path class="cls-1" d="M3706.11,1438.34V1260h42.26q29.25,0,39-15.38c8.64-6.15,13-19.52,13-40V278.89h117q45.47,0,78,30.76t32.49,73.81v855q0,104.51-65,153.77-65,46.13-214.5,46.13ZM3800.35,39h117q45.47,0,78,30.76t32.49,73.81v64.59H3800.35Z" transform="translate(-142.62 -39)"/><path class="cls-1" d="M4127.66,1022.9q-68.46-55.55-97.83-149.67t-29.35-195.95q0-83.33,24.46-166.65t76.64-138.85q84.76-92.58,218.49-109.55t241.32,20.06q123.92,46.3,182.63,160.46,55.41,101.83,55.44,237.61,0,98.79-22.82,169.72t-58.71,120.35Q4639.68,1072.27,4519,1097q-107.62,27.78-216.87,4.63T4127.66,1022.9ZM4284.2,479.79q-68.46,71-62,211.37t55.44,196q19.56,24.74,68.48,41.65t99.46,3.09q50.53-13.89,89.7-69.43t42.39-179q0-111.08-37.49-166.63t-86.42-71q-48.93-15.41-97.84-1.54T4284.2,479.79Z" transform="translate(-142.62 -39)"/><path class="cls-1" d="M4845.08,1238.17c45.62,0,72.52-.51,86.13-14.12,16.75-16.75,33.5-41.88,5.3-113.58L4618.16,252.12h263.57l184.85,608.94,160.87-531.21Q5248,252.12,5337,252.12h164.31l-349.15,981.43q-41.08,106.89-102.7,152.24-61.62,38.87-202,38.87C4840.66,1424.66,4845.08,1238.17,4845.08,1238.17Z" transform="translate(-142.62 -39)"/><path class="cls-1" d="M1797.44,1389.93v-90.57h-33.06v-55.42h33.06v-54.6h63.29v54.6h40.52v55.42h-40.52v72.76c0,11.6,6.6,20.29,17.77,20.29,7,0,14-2.48,16.14-5l12.38,48c-7.84,7.45-23.56,13.23-47.11,13.23C1819.36,1448.64,1797.44,1428.38,1797.44,1389.93Z" transform="translate(-142.62 -39)"/><path class="cls-1" d="M1899.26,1343.59c0-57.9,43.85-104.62,106.29-104.62,59.11,0,102.14,43.42,102.14,111.26v13.62H1965.42c3.73,18.63,21.07,35.58,50,35.58,14.08,0,38.46-6.21,49.63-17l26.89,39.7c-19.87,17.77-52.93,26.47-83.55,26.47C1946.8,1448.64,1899.26,1408.52,1899.26,1343.59Zm106.29-55.42c-27.71,0-38.46,19.87-40.94,34.34h82.27C2045.25,1308.43,2034.89,1288.18,2005.55,1288.18Z" transform="translate(-142.62 -39)"/><path class="cls-1" d="M2105.31,1343.59c0-62.44,46.72-104.62,109.16-104.62,43,0,69.89,19,81.88,36.83L2255,1314.25c-7.88-11.6-20.68-19.05-37.64-19.05-26.47,0-46.72,18.2-46.72,48.39s20.26,48.82,46.72,48.82A45,45,0,0,0,2255,1373l41.33,38.85c-12,17.38-38.88,36.83-81.88,36.83C2152,1448.64,2105.31,1406.46,2105.31,1343.59Z" transform="translate(-142.62 -39)"/><path class="cls-1" d="M2440.39,1443.67V1327.49c0-24.41-12.84-32.28-33.1-32.28-18.59,0-31,10.36-38.46,19.44v129h-63.68V1167.84h63.68v100.51c12-14.08,35.58-29.38,69.07-29.38,45.48,0,66.17,25.65,66.17,62.44v142.26Z" transform="translate(-142.62 -39)"/></svg>